# xmcd CD database file
#
# Track frame offsets:
#	180
#	11936
#	21223
#	39601
#	51226
#	66525
#	77616
#	93726
#	104776
#	119659
#	131775
#
# Disc length: 2006 seconds
#
# Revision: 3
# Processed by: cddbd v1.5.2PL0 Copyright (c) Steve Scherf et al.
# Submitted via: CDex 1.51
#
DISCID=a807d40b
DTITLE=Sara Evans - Three Cords And The Truth
DYEAR=1997
DGENRE=Country
TTITLE0=True Lies
TTITLE1=Shame About That
TTITLE2=Three Chords And The Truth
TTITLE3=If You Ever Want My Lovin'
TTITLE4=Imagine That
TTITLE5=Even Now
TTITLE6=I Don't Wanna See The Light
TTITLE7=I've Got A Tiger By The Tail
TTITLE8=Unopened
TTITLE9=Walk Out Backwards
TTITLE10=The Week The River Raged
EXTD=YEAR: 1997
EXTT0=
EXTT1=
EXTT2=
EXTT3=
EXTT4=
EXTT5=
EXTT6=
EXTT7=
EXTT8=
EXTT9=
EXTT10=
PLAYORDER=
